<svg xmlns="http://www.w3.org/2000/svg" width="350" height="143" viewBox="0 0 350 143" fill="none"><g clip-path="url(#clip0_626_2)"><path d="M92.3066 26.7808H113.495L117.617 41.5237L120.376 51.8547H120.631L123.39 41.5237L127.53 26.7808H148.628L130.798 72.6982H110.118L92.3066 26.7808Z" fill="#F32F2F"></path><path d="M163.607 0C170.234 0 174.81 4.39384 174.81 10.7667C174.81 17.1396 170.252 21.6242 163.607 21.6242C156.962 21.6242 152.332 17.2304 152.332 10.7667C152.332 4.30306 156.817 0 163.607 0ZM153.785 26.7806H173.43V72.698H153.785V26.7806Z" fill="#F32F2F"></path><path d="M187.736 54.3418V41.941H179.548V26.7804H183.597C189.025 26.7804 190.405 25.4913 191.168 20.4983L192.112 14.7246H207.363V26.7804H217.876V41.8502H207.363V50.3837C207.363 54.7775 209.342 56.6658 213.99 56.6658H218.384V72.6797H208.144C194.618 72.6797 187.736 66.4702 187.736 54.3418Z" fill="#F32F2F"></path><path d="M230.713 54.3418V41.941H222.524V26.7804H226.573C232.002 26.7804 233.382 25.4913 234.144 20.4983L235.089 14.7246H250.34V26.7804H260.852V41.8502H250.34V50.3837C250.34 54.7775 252.319 56.6658 256.967 56.6658H261.361V72.6797H251.103C237.576 72.6797 230.695 66.4702 230.695 54.3418" fill="#F32F2F"></path><path d="M288.849 8.95117H269.204V72.68H288.849V8.95117Z" fill="#F32F2F"></path><path d="M295.821 49.7849C295.821 35.4051 306.751 25.5825 322.529 25.5825C339.669 25.5825 350.091 36.785 349.147 54.0154H314.867C315.902 58.3184 319.08 60.2248 322.965 60.2248C325.816 60.2248 328.485 59.1899 329.937 57.4651H348.366C344.571 67.9776 335.021 74.0055 322.348 74.0055C306.588 74.0055 295.821 64.0921 295.821 49.8031M330.7 44.9735C329.574 41.3604 326.905 39.1998 322.856 39.1998C318.807 39.1998 316.047 41.088 314.94 44.9735H330.7Z" fill="#F32F2F"></path><path d="M196.687 137.026L194.872 141.583H180.928V77.8545H200.573V97.4089C203.932 95.5206 207.89 94.4857 212.375 94.4857C226.246 94.4857 235.633 104.308 235.633 118.688C235.633 133.068 226.246 142.8 212.375 142.8C206.002 142.8 200.664 140.73 196.706 137.026M208.253 126.949C213.155 126.949 216.514 123.59 216.514 118.688C216.514 113.786 213.155 110.336 208.253 110.336C203.351 110.336 200.065 113.695 200.065 118.688C200.065 123.681 203.333 126.949 208.253 126.949Z" fill="#F32F2F"></path><path d="M239.827 118.688C239.827 104.127 250.848 94.4858 267.225 94.4858C283.602 94.4858 294.623 104.127 294.623 118.688C294.623 133.25 283.675 142.891 267.225 142.891C250.775 142.891 239.827 133.25 239.827 118.688ZM267.225 126.949C272.055 126.949 275.486 123.59 275.486 118.688C275.486 113.786 272.037 110.336 267.225 110.336C262.414 110.336 258.964 113.695 258.964 118.688C258.964 123.681 262.414 126.949 267.225 126.949Z" fill="#F32F2F"></path><path d="M309.602 118.252L295.476 95.6841H316.828L319.679 101.204L322.257 106.451H322.602L325.18 101.204L328.03 95.6841H349.219L335.257 118.252L350 141.601H328.194L325.361 136.082L322.602 130.49H322.257L319.497 136.082L316.665 141.601H294.877L309.602 118.252Z" fill="#F32F2F"></path><path d="M30.1942 142.146L23.5127 122.683L136.373 92.6157L139.114 142.764L30.1942 142.146Z" fill="#444BD7"></path><path d="M0 110.209L21.0614 119.759L61.4592 7.57112L9.18711 1.19824L0 110.209Z" fill="#444BD7"></path></g><defs><clipPath id="clip0_626_2"><rect width="350" height="142.89" fill="white"></rect></clipPath></defs></svg>